<?xml version="1.0" encoding="UTF-8" standalone="no"?>
<svg
   version="1.1"
   x="0px"
   y="0px"
   viewBox="0 0 26.732134 24.945612"
   xml:space="preserve"
   id="svg6"
   width="26.732134"
   height="24.945612"
   sodipodi:docname="indicator-toxic.svg"
   inkscape:version="1.4.2 (ebf0e940d0, 2025-05-08)"
   xmlns:inkscape="http://www.inkscape.org/namespaces/inkscape"
   xmlns:sodipodi="http://sodipodi.sourceforge.net/DTD/sodipodi-0.dtd"
   xmlns="http://www.w3.org/2000/svg"
   xmlns:svg="http://www.w3.org/2000/svg"><sodipodi:namedview
     id="namedview1"
     pagecolor="#ffffff"
     bordercolor="#000000"
     borderopacity="0.25"
     inkscape:showpageshadow="2"
     inkscape:pageopacity="0.0"
     inkscape:pagecheckerboard="0"
     inkscape:deskcolor="#d1d1d1"
     inkscape:zoom="31.789158"
     inkscape:cx="13.369338"
     inkscape:cy="12.472806"
     inkscape:window-width="1920"
     inkscape:window-height="1011"
     inkscape:window-x="0"
     inkscape:window-y="32"
     inkscape:window-maximized="1"
     inkscape:current-layer="svg6" /><defs
     id="defs6" /><path
     d="M 25.732136,0.00616602 H 8.612995 c 0,0 -8.174976,-0.240698 -8.612995,2.28561698 l 0.0085,15.870629 c 2.96e-4,0.552734 0.447266,1 1,1 h 3.716797 l 1.464844,5.061523 c 0.09668,0.333008 0.359375,0.592774 0.694336,0.685547 0.08789,0.02441 0.177734,0.03613 0.266601,0.03613 0.249024,0 0.493164,-0.09375 0.680664,-0.267578 l 5.931641,-5.515625 h 11.96875 c 0.552734,0 1,-0.447266 1,-1 V 1.006166 c 0,-0.55273498 -0.447266,-0.99999998 -1,-0.99999998 z M 0.008503,1.006166 V 2.313322 L 8.663338,0.00616602 H 1.008503 c -0.552734,0 -1,0.447265 -1,0.99999998 z M 24.732136,17.162414 H 13.369831 c -0.25293,0 -0.496094,0.0957 -0.680664,0.267578 L 7.65987,22.10675 6.43819,17.884093 C 6.314167,17.456359 5.922565,17.162414 5.477253,17.162414 H 2.008503 V 5.749206 c 1.22e-4,-0.0068 0.0039,-0.01251 0.0039,-0.01941 0,-0.0069 -0.0038,-0.01257 -0.0039,-0.01941 V 2.006165 h 5.585144 c 0.08003,-0.366011 0.01245,0.0039 0.01935,0.0039 0.0069,0 0.01251,-0.0038 0.01935,-0.0039 H 24.73214 v 15.156248 z"
     id="path1"
     style="fill:#800000;fill-opacity:1" /><g
     id="g5"
     transform="matrix(0.12722701,0,0,0.12722701,7.3437016,2.8378976)"
     style="fill:#800000;fill-opacity:1"><path
       d="m 30.305,68.484 c 0,-0.10156 0,-0.30469 -0.10156,-0.40234 -6.8672,2.7266 -13.535,6.2617 -21.312,1.3125 -1.6172,-1.0117 -5.8594,0 -6.8672,1.6172 -1.4141,1.918 -1.4141,5.4531 -1.0117,8.082 0.40234,2.5234 1.6172,5.2539 2.9297,7.6758 1.6172,2.7266 3.7383,6.8672 5.8594,6.8672 2.7266,0 5.6562,-2.9297 8.2812,-5.1523 3.332,-2.7266 5.8594,-6.668 9.5977,-8.6875 2.4258,-1.2109 4.9492,-2.2227 7.5742,-3.2305 -2.4258,-1.3125 -4.4453,-3.6367 -4.9492,-8.082 z"
       id="path1-3"
       style="fill:#800000;fill-opacity:1" /><path
       d="m 9.8984,60.402 c 4.2422,-2.4258 7.9805,-2.4258 11.414,-1.4141 0,-1.5156 0.50391,-2.8281 0.70703,-3.4336 1.3125,-3.8398 0.60547,-7.0703 -1.0117,-10.91 -0.91016,-1.3125 -1.6172,-2.8281 -2.1211,-4.6445 -0.60547,-1.7188 -4.3438,-3.9375 -6.0625,-3.7383 -2.3242,0.40234 -4.7461,2.7266 -6.2617,4.9492 -1.918,2.7266 -3.7383,5.8594 -4.5469,9.1914 -0.80859,2.5234 -1.0117,6.0625 0.40234,7.8789 1.4219,1.8203 5.6641,3.0312 7.4805,2.1211 z"
       id="path2-6"
       style="fill:#800000;fill-opacity:1" /><path
       d="m 57.477,75.355 c 0.10156,0 0.10156,-0.10156 0.20313,-0.10156 0.30469,-0.10156 0.50391,-0.20312 0.80859,-0.30469 0.10156,-0.10156 0.20312,-0.10156 0.40234,-0.20312 0.20312,-0.10156 0.40234,-0.20312 0.60547,-0.30469 0.10156,-0.10156 0.20312,-0.10156 0.40234,-0.20312 0.20312,-0.10156 0.40234,-0.20312 0.60547,-0.40234 0.10156,-0.10156 0.20312,-0.20313 0.40234,-0.30469 0.20312,-0.10156 0.40234,-0.30469 0.50391,-0.50391 l 1.2148,-1.2148 c 0.30469,-0.30469 0.50391,-0.60547 0.80859,-1.0117 0.50391,-0.60547 0.80859,-1.4141 0.80859,-2.2227 0.10156,-0.80859 0.20312,-1.5156 0.40234,-2.1211 0.10156,-0.20312 0.10156,-0.30469 0.20312,-0.40234 0.10156,-0.10156 0.10156,-0.30469 0.20312,-0.40234 0.10156,-0.10156 0.10156,-0.30469 0.20312,-0.40234 0.10156,-0.10156 0.20312,-0.20312 0.30469,-0.40234 l 0.30469,-0.30469 c 0.20312,-0.20312 0.40234,-0.40234 0.60547,-0.50391 0.10156,-0.10156 0.20312,-0.10156 0.20312,-0.20312 0.20312,-0.10156 0.40234,-0.20313 0.60547,-0.30469 0.10156,-0.10156 0.20312,-0.10156 0.30469,-0.20312 0.20312,-0.10156 0.40234,-0.20312 0.70703,-0.20312 0.10156,0 0.20313,-0.10156 0.30469,-0.10156 0.40234,-0.10156 0.70703,-0.20313 1.1094,-0.30469 1.3125,-0.30469 3.5352,-3.8398 3.0312,-5.1523 -0.10156,-0.40234 -0.20312,-0.80859 -0.40234,-1.2109 0,-0.10156 -0.10156,-0.20312 -0.10156,-0.40234 -0.10156,-0.30469 -0.10156,-0.60547 -0.20312,-0.91016 0,-0.10156 0,-0.20312 -0.10156,-0.40234 -0.10156,-0.40234 -0.10156,-0.80859 -0.20312,-1.1094 -0.50391,-5.5547 1.7188,-10.504 4.2422,-15.656 1.3125,-2.625 1.3125,-5.6562 1.8164,-8.5859 -0.30469,-13.133 -8.8906,-22.223 -24.445,-24.242 -11.617,-1.8164 -22.223,1.6172 -29.598,11.012 -5.8594,7.4766 -5.3555,16.363 -1.6172,24.645 1.1094,2.5234 2.2227,5.0508 2.7266,7.6758 0.10156,0.30469 0.10156,0.60547 0.20312,0.91016 0,0.30469 0.10156,0.60547 0.10156,0.91016 v 0.10156 0.91016 0.10156 0.80859 0.20312 c 0,0.30469 0,0.50391 -0.10156,0.80859 0,0.10156 0,0.20313 -0.10156,0.30469 0,0.20312 -0.10156,0.40234 -0.10156,0.70703 0,0.20312 -0.10156,0.30469 -0.10156,0.50391 0,0.20312 -0.10156,0.30469 -0.10156,0.50391 -0.10156,0.30469 -0.20312,0.60547 -0.30469,1.0117 v 0.10156 c -0.10156,0.20312 -0.20312,0.50391 -0.20312,0.70703 v 0.10156 c -0.10156,0.30469 -0.10156,0.50391 -0.20312,0.80859 v 0.10156 c -0.30469,2.2227 0.30469,4.7461 3.7383,4.8477 3.2305,0.10156 4.5469,1.8164 5.0508,4.1406 0.10156,0.30469 0.10156,0.60547 0.20312,1.0117 0.10156,0.50391 0.10156,0.91016 0.20312,1.3125 v 0.20312 c 0.10156,0.40234 0.20312,0.70703 0.30469,1.1094 0,0.10156 0,0.10156 0.10156,0.20312 0.10156,0.30469 0.30469,0.60547 0.40234,0.91016 l 0.10156,0.10156 c 0.20313,0.30469 0.30469,0.50391 0.50391,0.80859 l 0.80859,0.80859 c 0.20313,0.20312 0.40234,0.30469 0.70703,0.50391 0.10156,0 0.10156,0.10156 0.20312,0.10156 0.20312,0.10156 0.50391,0.30469 0.70703,0.40234 0.10156,0 0.10156,0.10156 0.20312,0.10156 0.20312,0.10156 0.50391,0.20312 0.80859,0.30469 0.10156,0 0.10156,0 0.20312,0.10156 0.20312,0.10156 0.50391,0.10156 0.70703,0.20312 h 0.20312 c 2.3242,0.50391 4.9492,0.40234 7.0703,0.60547 3.4336,0.40234 7.0703,0.70703 10.402,-0.10156 0.30078,-0.10937 0.60547,-0.21094 0.91016,-0.30859 z M 55.9614,35.656 c 7.9805,0.20312 12.426,3.0312 11.211,6.9688 -1.0117,3.0312 -3.7383,6.1602 -6.668,7.5742 -2.625,1.3125 -7.9805,-6.3633 -7.5742,-11.012 0.10156,-1.6133 2.5234,-2.9258 3.0312,-3.5312 z m -8.7891,15.758 c 0,-0.30469 0.30469,-0.50391 0.60547,-0.60547 0.60547,-0.20312 1.0117,-0.20312 1.6172,0 0.30469,0.20312 0.60547,0.30469 0.80859,0.60547 1.0117,2.4258 1.918,4.8477 2.9297,7.7773 0.10156,0.50391 -0.10156,0.91016 -0.50391,1.2109 -0.10156,0 -0.10156,0.10156 -0.20312,0.10156 h -0.20312 -6.9688 c -0.10156,0 -0.30469,0 -0.40234,-0.10156 h -0.10156 c -0.10156,-0.10156 -0.20312,-0.10156 -0.30469,-0.20312 -0.10156,-0.10156 -0.20312,-0.20312 -0.20312,-0.30469 0,-0.10156 -0.10156,-0.20312 -0.10156,-0.40234 0,-0.20313 0,-0.30469 0.10156,-0.50391 1.0117,-2.7266 2.0195,-5.1484 2.9297,-7.5742 z M 41.2114,35.859 c 0.50391,0.30469 3.0312,1.4141 3.4336,3.0312 0.80859,3.5352 -5.1523,11.617 -7.9805,11.816 -3.2305,0.20312 -6.7695,-4.3438 -6.668,-8.3828 0.20703,-4.4453 3.3359,-6.4648 11.215,-6.4648 z"
       id="path3-6"
       style="fill:#800000;fill-opacity:1" /><path
       d="m 98.586,54.848 c -0.60547,-3.332 -1.6172,-6.668 -3.332,-9.5977 -1.6172,-2.3242 -3.9375,-5.2539 -6.2617,-5.8594 -1.7188,-0.40234 -5.8594,2.1211 -6.4648,4.1406 -1.5156,4.8477 -4.6445,7.1719 -8.2812,8.9883 0,1.4141 0.30469,2.8281 0.80859,4.3438 0.40234,1.2109 0.20312,2.7266 -0.70703,4.4453 -0.20312,0.50391 -0.91016,1.6172 -1.8164,2.5234 6.1602,-2.0195 11.816,-3.2305 18.281,0.10156 1.7188,0.80859 5.6562,-0.20312 6.8672,-1.7188 1.3086,-1.6094 1.3086,-4.9414 0.90625,-7.3672 z"
       id="path4-7"
       style="fill:#800000;fill-opacity:1" /><path
       d="m 92.93,73.332 c -0.80859,-0.80859 -2.9297,-0.60547 -4.1406,0 -8.082,3.7383 -14.645,0.50391 -22.324,-3.4336 -0.20312,0.91016 -0.60547,1.8164 -1.1094,2.5234 -1.6172,2.3242 -3.5352,3.7383 -5.4531,4.6445 8.1836,3.5352 16.566,6.8672 20.305,16.77 0.60547,1.918 6.8672,3.9375 7.0703,3.7383 3.7383,-5.8594 7.4766,-12.02 10.203,-18.484 0.5,-1.0078 -2.6328,-4.0391 -4.5508,-5.7578 z"
       id="path5-5"
       style="fill:#800000;fill-opacity:1" /></g></svg>
