<?xml version="1.0" encoding="UTF-8" standalone="no"?>
<svg
   version="1.1"
   x="0px"
   y="0px"
   viewBox="0 0 26.732134 24.945612"
   xml:space="preserve"
   id="svg6"
   width="26.732134"
   height="24.945612"
   sodipodi:docname="indicator-nontoxic.svg"
   inkscape:version="1.4.2 (ebf0e940d0, 2025-05-08)"
   xmlns:inkscape="http://www.inkscape.org/namespaces/inkscape"
   xmlns:sodipodi="http://sodipodi.sourceforge.net/DTD/sodipodi-0.dtd"
   xmlns="http://www.w3.org/2000/svg"
   xmlns:svg="http://www.w3.org/2000/svg"><sodipodi:namedview
     id="namedview1"
     pagecolor="#ffffff"
     bordercolor="#000000"
     borderopacity="0.25"
     inkscape:showpageshadow="2"
     inkscape:pageopacity="0.0"
     inkscape:pagecheckerboard="0"
     inkscape:deskcolor="#d1d1d1"
     inkscape:zoom="31.789158"
     inkscape:cx="13.369338"
     inkscape:cy="12.472806"
     inkscape:window-width="1920"
     inkscape:window-height="1011"
     inkscape:window-x="0"
     inkscape:window-y="32"
     inkscape:window-maximized="1"
     inkscape:current-layer="svg6" /><defs
     id="defs6" /><path
     d="M 25.732136,0.00616602 H 8.612995 c 0,0 -8.174976,-0.240698 -8.612995,2.28561698 l 0.0085,15.870629 c 2.96e-4,0.552734 0.447266,1 1,1 h 3.716797 l 1.464844,5.061523 c 0.09668,0.333008 0.359375,0.592774 0.694336,0.685547 0.08789,0.02441 0.177734,0.03613 0.266601,0.03613 0.249024,0 0.493164,-0.09375 0.680664,-0.267578 l 5.931641,-5.515625 h 11.96875 c 0.552734,0 1,-0.447266 1,-1 V 1.006166 c 0,-0.55273498 -0.447266,-0.99999998 -1,-0.99999998 z M 0.008503,1.006166 V 2.313322 L 8.663338,0.00616602 H 1.008503 c -0.552734,0 -1,0.447265 -1,0.99999998 z M 24.732136,17.162414 H 13.369831 c -0.25293,0 -0.496094,0.0957 -0.680664,0.267578 L 7.65987,22.10675 6.43819,17.884093 C 6.314167,17.456359 5.922565,17.162414 5.477253,17.162414 H 2.008503 V 5.749206 c 1.22e-4,-0.0068 0.0039,-0.01251 0.0039,-0.01941 0,-0.0069 -0.0038,-0.01257 -0.0039,-0.01941 V 2.006165 h 5.585144 c 0.08003,-0.366011 0.01245,0.0039 0.01935,0.0039 0.0069,0 0.01251,-0.0038 0.01935,-0.0039 H 24.73214 v 15.156248 z"
     id="path1"
     style="fill:#008000;fill-opacity:1" /><path
     style="fill:none;stroke:#008000;stroke-width:2.521;stroke-linecap:round;stroke-linejoin:round;stroke-dasharray:none;stroke-opacity:1;paint-order:markers stroke fill"
     d="m 8.753413,9.42186 3.181572,3.181573 6.893408,-6.628275"
     id="path3" /></svg>
